<?xml version="1.0" standalone="no"?>
<!DOCTYPE svg PUBLIC "-//W3C//DTD SVG 20010904//EN"
 "http://www.w3.org/TR/2001/REC-SVG-20010904/DTD/svg10.dtd">
<svg version="1.0" xmlns="http://www.w3.org/2000/svg"
 width="16pt" height="16pt" viewBox="0 0 225.000000 225.000000"
 preserveAspectRatio="xMidYMid meet">
<metadata>
Created by potrace 1.15, written by Peter Selinger 2001-2017
</metadata>
<g transform="translate(0.000000,225.000000) scale(0.100000,-0.100000)"
fill="#000000" stroke="none">
<path d="M983 2240 c-265 -37 -485 -150 -669 -342 -262 -274 -366 -645 -284
-1019 44 -205 136 -373 290 -532 219 -229 485 -341 805 -341 320 0 586 112
805 341 95 98 139 158 196 270 84 165 118 314 118 513 -1 306 -98 548 -309
769 -160 168 -357 278 -588 327 -88 18 -280 26 -364 14z m367 -763 c111 -186
200 -340 198 -342 -13 -13 -414 -248 -422 -248 -8 0 -383 220 -424 248 -1 2
92 161 209 355 172 285 214 349 224 338 7 -7 103 -165 215 -351z m-439 -554
c112 -69 209 -126 214 -126 6 0 102 57 214 127 112 69 205 125 206 124 5 -6
-417 -593 -423 -589 -4 3 -85 115 -181 250 -95 135 -189 267 -208 294 -19 26
-33 47 -30 47 3 0 96 -57 208 -127z"/>
</g>
</svg>
